<mxfile host="Electron" modified="2024-07-24T10:49:23.896Z" agent="Mozilla/5.0 (Macintosh; Intel Mac OS X 10_15_7) AppleWebKit/537.36 (KHTML, like Gecko) draw.io/24.6.4 Chrome/124.0.6367.207 Electron/30.0.6 Safari/537.36" etag="WhKgDWYjnd3QqYwPdd3X" version="24.6.4" type="device">
  <diagram id="C5RBs43oDa-KdzZeNtuy" name="Page-1">
    <mxGraphModel dx="1242" dy="878" grid="1" gridSize="10" guides="1" tooltips="1" connect="1" arrows="1" fold="1" page="1" pageScale="1" pageWidth="827" pageHeight="1169" math="0" shadow="1">
      <root>
        <mxCell id="WIyWlLk6GJQsqaUBKTNV-0" />
        <mxCell id="WIyWlLk6GJQsqaUBKTNV-1" parent="WIyWlLk6GJQsqaUBKTNV-0" />
        <mxCell id="fWMs-AWbwwGjTjC42o2T-5" value="" style="edgeStyle=orthogonalEdgeStyle;rounded=0;orthogonalLoop=1;jettySize=auto;html=1;" parent="WIyWlLk6GJQsqaUBKTNV-1" source="WIyWlLk6GJQsqaUBKTNV-3" target="fWMs-AWbwwGjTjC42o2T-1" edge="1">
          <mxGeometry relative="1" as="geometry" />
        </mxCell>
        <mxCell id="WIyWlLk6GJQsqaUBKTNV-3" value="Constructor" style="rounded=1;whiteSpace=wrap;html=1;fontSize=12;glass=0;strokeWidth=1;shadow=0;" parent="WIyWlLk6GJQsqaUBKTNV-1" vertex="1">
          <mxGeometry x="240" y="41" width="200" height="40" as="geometry" />
        </mxCell>
        <mxCell id="fWMs-AWbwwGjTjC42o2T-3" value="" style="edgeStyle=orthogonalEdgeStyle;rounded=0;orthogonalLoop=1;jettySize=auto;html=1;" parent="WIyWlLk6GJQsqaUBKTNV-1" source="fWMs-AWbwwGjTjC42o2T-1" target="fWMs-AWbwwGjTjC42o2T-2" edge="1">
          <mxGeometry relative="1" as="geometry" />
        </mxCell>
        <mxCell id="fWMs-AWbwwGjTjC42o2T-1" value="InitEvent" style="rounded=1;whiteSpace=wrap;html=1;" parent="WIyWlLk6GJQsqaUBKTNV-1" vertex="1">
          <mxGeometry x="240" y="121" width="200" height="40" as="geometry" />
        </mxCell>
        <mxCell id="ozWfR34WY5bY5wLhkfF--1" style="edgeStyle=orthogonalEdgeStyle;rounded=0;orthogonalLoop=1;jettySize=auto;html=1;entryX=0.5;entryY=0;entryDx=0;entryDy=0;" edge="1" parent="WIyWlLk6GJQsqaUBKTNV-1" source="fWMs-AWbwwGjTjC42o2T-2" target="ozWfR34WY5bY5wLhkfF--0">
          <mxGeometry relative="1" as="geometry" />
        </mxCell>
        <mxCell id="fWMs-AWbwwGjTjC42o2T-2" value="QueryParametersChangeEvent" style="whiteSpace=wrap;html=1;rounded=1;" parent="WIyWlLk6GJQsqaUBKTNV-1" vertex="1">
          <mxGeometry x="240" y="201" width="200" height="40" as="geometry" />
        </mxCell>
        <mxCell id="fWMs-AWbwwGjTjC42o2T-39" style="edgeStyle=orthogonalEdgeStyle;rounded=0;orthogonalLoop=1;jettySize=auto;html=1;entryX=0.5;entryY=0;entryDx=0;entryDy=0;" parent="WIyWlLk6GJQsqaUBKTNV-1" source="fWMs-AWbwwGjTjC42o2T-7" target="fWMs-AWbwwGjTjC42o2T-11" edge="1">
          <mxGeometry relative="1" as="geometry" />
        </mxCell>
        <mxCell id="fWMs-AWbwwGjTjC42o2T-7" value="BeforeShowEvent" style="whiteSpace=wrap;html=1;rounded=1;" parent="WIyWlLk6GJQsqaUBKTNV-1" vertex="1">
          <mxGeometry x="240" y="360" width="200" height="40" as="geometry" />
        </mxCell>
        <mxCell id="fWMs-AWbwwGjTjC42o2T-11" value="&lt;span style=&quot;background-color: rgb(255, 255, 255);&quot;&gt;AfterShowEvent&lt;/span&gt;" style="whiteSpace=wrap;html=1;rounded=1;" parent="WIyWlLk6GJQsqaUBKTNV-1" vertex="1">
          <mxGeometry x="240" y="439" width="200" height="40" as="geometry" />
        </mxCell>
        <mxCell id="BLMlpl0zYS9kHrcX5G3V-9" style="edgeStyle=orthogonalEdgeStyle;rounded=0;orthogonalLoop=1;jettySize=auto;html=1;entryX=0.5;entryY=0;entryDx=0;entryDy=0;" parent="WIyWlLk6GJQsqaUBKTNV-1" source="BLMlpl0zYS9kHrcX5G3V-8" target="BLMlpl0zYS9kHrcX5G3V-12" edge="1">
          <mxGeometry relative="1" as="geometry">
            <mxPoint x="340" y="679" as="targetPoint" />
          </mxGeometry>
        </mxCell>
        <mxCell id="BLMlpl0zYS9kHrcX5G3V-10" value="&lt;span style=&quot;font-size: 12px; text-wrap: wrap; background-color: rgb(251, 251, 251);&quot;&gt;Closing view&lt;/span&gt;" style="edgeLabel;html=1;align=center;verticalAlign=middle;resizable=0;points=[];" parent="BLMlpl0zYS9kHrcX5G3V-9" vertex="1" connectable="0">
          <mxGeometry x="-0.1615" y="2" relative="1" as="geometry">
            <mxPoint x="-2" y="8" as="offset" />
          </mxGeometry>
        </mxCell>
        <mxCell id="BLMlpl0zYS9kHrcX5G3V-8" value="" style="shape=umlActor;verticalLabelPosition=bottom;verticalAlign=top;html=1;outlineConnect=0;" parent="WIyWlLk6GJQsqaUBKTNV-1" vertex="1">
          <mxGeometry x="325" y="519" width="30" height="60" as="geometry" />
        </mxCell>
        <mxCell id="BLMlpl0zYS9kHrcX5G3V-11" style="edgeStyle=orthogonalEdgeStyle;rounded=0;orthogonalLoop=1;jettySize=auto;html=1;entryX=0.5;entryY=0;entryDx=0;entryDy=0;" parent="WIyWlLk6GJQsqaUBKTNV-1" source="BLMlpl0zYS9kHrcX5G3V-12" target="BLMlpl0zYS9kHrcX5G3V-17" edge="1">
          <mxGeometry relative="1" as="geometry" />
        </mxCell>
        <mxCell id="BLMlpl0zYS9kHrcX5G3V-12" value="BeforeCloseEvent" style="whiteSpace=wrap;html=1;rounded=1;" parent="WIyWlLk6GJQsqaUBKTNV-1" vertex="1">
          <mxGeometry x="240" y="664" width="200" height="40" as="geometry" />
        </mxCell>
        <mxCell id="ozWfR34WY5bY5wLhkfF--4" style="edgeStyle=orthogonalEdgeStyle;rounded=0;orthogonalLoop=1;jettySize=auto;html=1;entryX=0.5;entryY=0;entryDx=0;entryDy=0;" edge="1" parent="WIyWlLk6GJQsqaUBKTNV-1" source="BLMlpl0zYS9kHrcX5G3V-13" target="ozWfR34WY5bY5wLhkfF--3">
          <mxGeometry relative="1" as="geometry" />
        </mxCell>
        <mxCell id="BLMlpl0zYS9kHrcX5G3V-13" value="AfterDetachEvent" style="whiteSpace=wrap;html=1;rounded=1;" parent="WIyWlLk6GJQsqaUBKTNV-1" vertex="1">
          <mxGeometry x="240" y="854" width="200" height="40" as="geometry" />
        </mxCell>
        <mxCell id="BLMlpl0zYS9kHrcX5G3V-14" value="No" style="edgeStyle=orthogonalEdgeStyle;rounded=0;orthogonalLoop=1;jettySize=auto;html=1;entryX=0.5;entryY=0;entryDx=0;entryDy=0;" parent="WIyWlLk6GJQsqaUBKTNV-1" source="BLMlpl0zYS9kHrcX5G3V-17" target="BLMlpl0zYS9kHrcX5G3V-13" edge="1">
          <mxGeometry relative="1" as="geometry" />
        </mxCell>
        <mxCell id="BLMlpl0zYS9kHrcX5G3V-15" style="edgeStyle=orthogonalEdgeStyle;rounded=0;orthogonalLoop=1;jettySize=auto;html=1;entryX=0;entryY=0.5;entryDx=0;entryDy=0;" parent="WIyWlLk6GJQsqaUBKTNV-1" source="BLMlpl0zYS9kHrcX5G3V-17" target="BLMlpl0zYS9kHrcX5G3V-18" edge="1">
          <mxGeometry relative="1" as="geometry" />
        </mxCell>
        <mxCell id="BLMlpl0zYS9kHrcX5G3V-16" value="Yes" style="edgeLabel;html=1;align=center;verticalAlign=middle;resizable=0;points=[];" parent="BLMlpl0zYS9kHrcX5G3V-15" vertex="1" connectable="0">
          <mxGeometry x="-0.02" y="-1" relative="1" as="geometry">
            <mxPoint x="-9" y="-1" as="offset" />
          </mxGeometry>
        </mxCell>
        <mxCell id="BLMlpl0zYS9kHrcX5G3V-17" value="&lt;div style=&quot;background-color:#ffffff;color:#080808&quot;&gt;&lt;pre style=&quot;&quot;&gt;&lt;font style=&quot;font-size: 12px;&quot; face=&quot;Helvetica&quot;&gt;Close prevented?&lt;/font&gt;&lt;/pre&gt;&lt;/div&gt;" style="rhombus;whiteSpace=wrap;html=1;rounded=1;" parent="WIyWlLk6GJQsqaUBKTNV-1" vertex="1">
          <mxGeometry x="220" y="744" width="240" height="60" as="geometry" />
        </mxCell>
        <mxCell id="BLMlpl0zYS9kHrcX5G3V-18" value="View closing interrupted" style="ellipse;whiteSpace=wrap;html=1;rounded=1;" parent="WIyWlLk6GJQsqaUBKTNV-1" vertex="1">
          <mxGeometry x="560" y="734" width="80" height="80" as="geometry" />
        </mxCell>
        <mxCell id="BLMlpl0zYS9kHrcX5G3V-19" value="" style="endArrow=none;dashed=1;html=1;rounded=0;exitX=1;exitY=0.5;exitDx=0;exitDy=0;entryX=0;entryY=0.5;entryDx=0;entryDy=0;" parent="WIyWlLk6GJQsqaUBKTNV-1" source="fWMs-AWbwwGjTjC42o2T-2" target="BLMlpl0zYS9kHrcX5G3V-20" edge="1">
          <mxGeometry width="50" height="50" relative="1" as="geometry">
            <mxPoint x="570" y="260" as="sourcePoint" />
            <mxPoint x="530" y="230" as="targetPoint" />
          </mxGeometry>
        </mxCell>
        <mxCell id="BLMlpl0zYS9kHrcX5G3V-20" value="&lt;span style=&quot;&quot;&gt;Only in case of opening screen by URL&lt;/span&gt;" style="text;html=1;align=center;verticalAlign=middle;whiteSpace=wrap;rounded=0;fontSize=14;labelBackgroundColor=none;" parent="WIyWlLk6GJQsqaUBKTNV-1" vertex="1">
          <mxGeometry x="480" y="189" width="150" height="64" as="geometry" />
        </mxCell>
        <mxCell id="ozWfR34WY5bY5wLhkfF--2" style="edgeStyle=orthogonalEdgeStyle;rounded=0;orthogonalLoop=1;jettySize=auto;html=1;entryX=0.5;entryY=0;entryDx=0;entryDy=0;" edge="1" parent="WIyWlLk6GJQsqaUBKTNV-1" source="ozWfR34WY5bY5wLhkfF--0" target="fWMs-AWbwwGjTjC42o2T-7">
          <mxGeometry relative="1" as="geometry" />
        </mxCell>
        <mxCell id="ozWfR34WY5bY5wLhkfF--0" value="AfterInitEvent" style="rounded=1;whiteSpace=wrap;html=1;" vertex="1" parent="WIyWlLk6GJQsqaUBKTNV-1">
          <mxGeometry x="240" y="280" width="200" height="40" as="geometry" />
        </mxCell>
        <mxCell id="ozWfR34WY5bY5wLhkfF--3" value="AfterCloseEvent" style="whiteSpace=wrap;html=1;rounded=1;" vertex="1" parent="WIyWlLk6GJQsqaUBKTNV-1">
          <mxGeometry x="240" y="940" width="200" height="40" as="geometry" />
        </mxCell>
      </root>
    </mxGraphModel>
  </diagram>
</mxfile>
